<svg width="38" height="38" viewBox="0 0 38 38" fill="none" xmlns="http://www.w3.org/2000/svg">
<path d="M19.0009 0C8.5083 0 0.000976562 8.50734 0.000976562 19C0.000976562 29.4925 8.5083 38 19.0009 38C29.4936 38 38.0007 29.4924 38.0007 19C38.0008 8.50734 29.4936 0 19.0009 0ZM29.0342 27.7231L27.5129 29.2447C27.2413 29.5159 26.446 29.6852 26.4204 29.6852C21.6078 29.7271 16.9739 27.8367 13.5692 24.4317C10.1551 21.0157 8.26254 16.3653 8.31337 11.5364C8.31337 11.5342 8.48755 10.7617 8.75891 10.4929L10.2801 8.97144C10.8368 8.41219 11.9061 8.15946 12.6552 8.41007L12.9752 8.51682C13.7221 8.76719 14.5063 9.59304 14.7127 10.3539L15.4779 13.1625C15.6842 13.9255 15.4059 15.011 14.8494 15.5677L13.8336 16.5836C14.8309 20.2756 17.7278 23.173 21.4204 24.1727L22.4357 23.1566C22.995 22.5973 24.0801 22.3192 24.8415 22.5252L27.6497 23.2932C28.4107 23.5023 29.2364 24.2816 29.4867 25.0282L29.5934 25.3529C29.8415 26.0998 29.5908 27.1689 29.0342 27.7231Z" fill="#D01116"/>
</svg>
